<svg xmlns="http://www.w3.org/2000/svg" width="40" height="40" viewBox="0 0 40 40">
  <defs>
    <clipPath id="frame">
      <rect x="1" y="1" width="38" height="38" rx="9"/>
    </clipPath>
  </defs>
  <rect x="1" y="1" width="38" height="38" rx="9" fill="#1a1b26"/>
  <g clip-path="url(#frame)">
    <circle cx="12" cy="9" r="0.9" fill="#c0caf5"/>
    <circle cx="19" cy="13" r="0.7" fill="#c0caf5" opacity="0.7"/>
    <circle cx="7" cy="15" r="0.6" fill="#c0caf5" opacity="0.5"/>
    <path d="M27.5 5.5 a 7.5 7.5 0 1 0 7.3 9.2 a 6 6 0 1 1 -7.3 -9.2 Z" fill="#7aa2f7"/>
    <path d="M-2 33 Q7 20 15 28 Q20 23 26 27.5 Q33 22 42 32 L42 42 L-2 42 Z" fill="#bb9af7"/>
    <path d="M5 36 h7 M16 37.5 h9 M29 36 h6" stroke="#7dcfff" stroke-width="1.4" stroke-linecap="round" opacity="0.85"/>
  </g>
</svg>
